<?xml version="1.0" encoding="UTF-8" standalone="no"?>
<svg
   xmlns:dc="http://purl.org/dc/elements/1.1/"
   xmlns:cc="http://creativecommons.org/ns#"
   xmlns:rdf="http://www.w3.org/1999/02/22-rdf-syntax-ns#"
   xmlns:svg="http://www.w3.org/2000/svg"
   xmlns="http://www.w3.org/2000/svg"
   xmlns:sodipodi="http://sodipodi.sourceforge.net/DTD/sodipodi-0.dtd"
   xmlns:inkscape="http://www.inkscape.org/namespaces/inkscape"
   inkscape:version="1.0 (4035a4fb49, 2020-05-01)"
   sodipodi:docname="undraw_scooter_aia8.svg"
   version="1.1"
   viewBox="0 0 521.5748 793.70076"
   height="210mm"
   width="138mm"
   data-name="Layer 1"
   id="fb9fe00d-fe37-492c-8223-5a450097a96f">
  <metadata
     id="metadata385">
    <rdf:RDF>
      <cc:Work
         rdf:about="">
        <dc:format>image/svg+xml</dc:format>
        <dc:type
           rdf:resource="http://purl.org/dc/dcmitype/StillImage" />
        <dc:title>scooter</dc:title>
      </cc:Work>
    </rdf:RDF>
  </metadata>
  <defs
     id="defs383" />
  <sodipodi:namedview
     width="138mm"
     units="mm"
     inkscape:current-layer="fb9fe00d-fe37-492c-8223-5a450097a96f"
     inkscape:window-maximized="1"
     inkscape:window-y="-8"
     inkscape:window-x="-8"
     inkscape:cy="469.25507"
     inkscape:cx="641.88136"
     inkscape:zoom="0.63832177"
     inkscape:snap-global="true"
     showgrid="false"
     id="namedview381"
     inkscape:window-height="1017"
     inkscape:window-width="1920"
     inkscape:pageshadow="2"
     inkscape:pageopacity="0"
     guidetolerance="10"
     gridtolerance="10"
     objecttolerance="10"
     borderopacity="1"
     bordercolor="#666666"
     pagecolor="#ffffff" />
  <title
     id="title2">scooter</title>
  <ellipse
     style="stroke-width:1.25356"
     id="ellipse8"
     opacity="0.1"
     fill="#6c63ff"
     ry="24.315493"
     rx="197.23064"
     cy="759.99829"
     cx="273.90048" />
  <path
     style="stroke-width:1.25356"
     id="path276"
     fill="#6c63ff"
     d="m 205.78245,696.07001 a 7.2992546,7.2671303 0 0 1 -5.43989,-3.27709 c -5.43989,-8.19272 -19.87508,-31.57011 -9.73653,-34.79717 a 40.114492,39.937946 0 0 1 4.91224,-1.25079 49.976652,49.756702 0 0 1 48.44393,18.84951 45.6172,45.416437 0 0 1 3.96999,6.02883 6.2816304,6.2539847 0 0 1 -3.76898,8.94321 c -8.94504,2.62667 -25.51598,6.64172 -38.38076,5.5035 z" />
  <polygon
     transform="matrix(1.2563261,0,0,1.250797,-466.02536,-135.37224)"
     id="polygon278"
     fill="#33323d"
     points="636.71,655.74 627.29,670.26 535.74,670.26 526.77,663.7 570.79,655.74 " />
  <path
     style="stroke-width:1.25356"
     id="path280"
     fill="#4c4981"
     d="m 237.79364,110.58447 c 6.20625,-3.1395 14.29699,0 21.68419,0.73797 9.57321,0.92559 19.05846,-2.50159 28.69449,-2.23893 a 35.993742,35.835332 0 0 1 23.54354,9.68117 28.769868,28.64325 0 0 1 8.66866,19.65002 22.965641,22.864568 0 0 1 -3.02774,12.63305 c -4.59816,7.61736 -15.07592,12.78314 -25.94314,13.6462 a 48.557003,48.343302 0 0 1 -30.30259,-7.91755 c -7.13593,-4.82808 -12.11098,-11.25717 -18.15391,-16.83572 -4.29663,-4.01507 -15.60357,-9.08079 -15.69151,-14.29662 -0.0628,-3.6148 6.60828,-13.10835 10.52801,-15.05959 z" />
  <path
     style="stroke-width:1.25356"
     id="path282"
     opacity="0.1"
     d="m 237.79364,110.58447 c 6.20625,-3.1395 14.29699,0 21.68419,0.73797 9.57321,0.92559 19.05846,-2.50159 28.69449,-2.23893 a 35.993742,35.835332 0 0 1 23.54354,9.68117 28.769868,28.64325 0 0 1 8.66866,19.65002 22.965641,22.864568 0 0 1 -3.02774,12.63305 c -4.59816,7.61736 -15.07592,12.78314 -25.94314,13.6462 a 48.557003,48.343302 0 0 1 -30.30259,-7.91755 c -7.13593,-4.82808 -12.11098,-11.25717 -18.15391,-16.83572 -4.29663,-4.01507 -15.60357,-9.08079 -15.69151,-14.29662 -0.0628,-3.6148 6.60828,-13.10835 10.52801,-15.05959 z" />
  <path
     style="stroke-width:1.25356"
     id="path284"
     fill="#4c4981"
     d="m 260.80954,647.50157 -0.85431,17.51115 a 236.42801,235.38748 0 0 1 24.9632,-0.4753 c 0.67842,-2.62667 0,-5.39093 -0.55278,-8.06764 a 61.195644,60.92632 0 0 1 -1.01763,-15.65997 c 0.10051,-1.43843 -15.45281,-2.91437 -17.02321,-2.98941 -1.90961,-0.0751 -3.89461,-0.33771 -4.81173,1.65106 -1.01763,2.17637 -0.59048,5.65359 -0.70354,8.03011 z" />
  <path
     style="stroke-width:1.25356"
     id="path286"
     fill="#4c4981"
     d="m 240.31886,653.14266 -0.84174,17.51116 a 236.18931,235.14983 0 0 1 24.95064,-0.4753 c 0.67841,-2.62668 0,-5.39094 -0.55279,-8.06764 a 61.760991,61.489178 0 0 1 -1.00506,-15.65999 c 0.0879,-1.45092 -15.45282,-2.91435 -17.02321,-2.9894 -1.92219,-0.0751 -3.89462,-0.33772 -4.81174,1.65105 -1.03019,2.17639 -0.60304,5.65361 -0.7161,8.03012 z" />
  <path
     style="stroke-width:1.25356"
     id="path288"
     fill="#4c4981"
     d="m 279.08908,646.90119 a 9.3219396,9.2809133 0 0 0 -3.19107,1.97625 l -6.28162,5.22833 c -2.11064,1.76363 -4.88712,3.62732 -7.41233,2.5016 a 17.123724,17.048362 0 0 1 -2.9398,-2.30146 2.88955,2.876833 0 0 0 -3.44233,-0.38775 3.5428396,3.5272474 0 0 0 -0.96738,2.16387 167.69441,166.95638 0 0 0 -2.72623,33.67146 20.013275,19.925196 0 0 0 6.11831,1.35086 1.0553139,1.0506695 0 0 0 0.67842,-0.12508 c 0.36433,-0.30019 0.16332,-0.87556 0.11307,-1.33836 -0.17589,-1.61352 2.0855,-2.56413 3.55539,-1.86368 a 7.0228629,6.9919549 0 0 1 2.88956,3.75239 3.7689783,3.7523909 0 0 0 1.08044,1.61353 3.6307824,3.6148032 0 0 0 1.49503,0.53784 53.808446,53.571633 0 0 0 8.64352,0.788 q 20.10122,0.68794 40.20243,0 a 13.342183,13.283464 0 0 0 4.12075,-0.57536 7.8394749,7.804973 0 0 0 4.79917,-6.05386 10.829531,10.78187 0 0 0 -1.90961,-7.66739 13.216551,13.158384 0 0 0 -4.40971,-4.02756 25.804938,25.69137 0 0 0 -4.15843,-1.75112 l -6.28164,-2.25143 c -4.58559,-1.62604 -9.33451,-3.36465 -12.75171,-6.80434 a 32.488593,32.345609 0 0 1 -4.79917,-6.90439 c -2.37445,-4.01507 -6.08061,-13.38353 -12.42506,-11.53235 z" />
  <path
     style="stroke-width:1.25356"
     id="path290"
     opacity="0.1"
     d="m 279.08908,646.90119 a 9.3219396,9.2809133 0 0 0 -3.19107,1.97625 l -6.28162,5.22833 c -2.11064,1.76363 -4.88712,3.62732 -7.41233,2.5016 a 17.123724,17.048362 0 0 1 -2.9398,-2.30146 2.88955,2.876833 0 0 0 -3.44233,-0.38775 3.5428396,3.5272474 0 0 0 -0.96738,2.16387 167.69441,166.95638 0 0 0 -2.72623,33.67146 20.013275,19.925196 0 0 0 6.11831,1.35086 1.0553139,1.0506695 0 0 0 0.67842,-0.12508 c 0.36433,-0.30019 0.16332,-0.87556 0.11307,-1.33836 -0.17589,-1.61352 2.0855,-2.56413 3.55539,-1.86368 a 7.0228629,6.9919549 0 0 1 2.88956,3.75239 3.7689783,3.7523909 0 0 0 1.08044,1.61353 3.6307824,3.6148032 0 0 0 1.49503,0.53784 53.808446,53.571633 0 0 0 8.64352,0.788 q 20.10122,0.68794 40.20243,0 a 13.342183,13.283464 0 0 0 4.12075,-0.57536 7.8394749,7.804973 0 0 0 4.79917,-6.05386 10.829531,10.78187 0 0 0 -1.90961,-7.66739 13.216551,13.158384 0 0 0 -4.40971,-4.02756 25.804938,25.69137 0 0 0 -4.15843,-1.75112 l -6.28164,-2.25143 c -4.58559,-1.62604 -9.33451,-3.36465 -12.75171,-6.80434 a 32.488593,32.345609 0 0 1 -4.79917,-6.90439 c -2.37445,-4.01507 -6.08061,-13.38353 -12.42506,-11.53235 z" />
  <path
     style="stroke-width:1.25356"
     id="path292"
     fill="#33323d"
     d="m 339.10378,364.04596 q 0,5.35341 -0.22615,10.71933 a 542.25547,539.86898 0 0 1 -5.90472,65.37915 c -0.7538,4.86561 -1.57041,9.7187 -2.76392,14.48424 -1.72117,6.81684 -4.25894,13.45857 -5.0253,20.46304 -1.04275,10.00637 1.64578,20.32544 -0.62817,30.1317 -1.16838,5.00318 -3.60565,9.66865 -5.0253,14.62181 a 78.733957,78.387445 0 0 0 -1.98499,8.99323 q -1.89706,10.5067 -3.76898,20.97586 c -0.1382,0.71296 -0.26384,1.42591 -0.38947,2.13887 a 86.510615,86.129878 0 0 1 -8.24149,23.64006 75.052921,74.72261 0 0 0 -5.02531,14.48423 q -3.35439,12.42042 -6.70878,24.86584 c -3.02774,11.19464 -6.06806,22.88959 -3.76898,34.25933 a 79.852087,79.500654 0 0 1 -13.61857,-2.02629 76.836904,76.498741 0 0 1 -16.49557,-6.02884 c -1.18095,-19.2998 -0.31407,-38.64962 0.54023,-57.97444 0.55278,-12.24531 1.10556,-24.51562 3.1785,-36.59832 2.24882,-13.17089 5.32682,-25.7414 8.01536,-38.83724 4.0328,-19.59999 8.09073,-39.36259 7.70127,-59.36282 -0.4774,-25.90401 0.20102,-52.28332 11.54564,-75.58567 a 17.349864,17.273506 0 0 1 5.25145,-7.07951 18.06597,17.986461 0 0 1 7.53795,-2.50159 142.46738,141.84038 0 0 1 27.35022,-1.95124 19.121283,19.03713 0 0 1 8.45508,2.78927 z" />
  <path
     style="stroke-width:1.25356"
     id="path294"
     opacity="0.1"
     d="m 339.10378,364.04596 c 0,3.56477 -27.1869,0.83804 -27.31253,4.40281 -33.39315,-3.85246 -17.75189,3.87746 -19.22179,4.91563 -3.16594,2.21391 12.0356,-2.23893 8.86966,0 -2.75135,1.93873 -7.02286,9.46854 -9.86215,11.25717 -6.62085,4.31525 15.4528,17.59871 10.54056,23.76514 -4.45995,5.57856 -5.5027,13.18341 -4.91223,20.26292 0.59048,7.07951 2.66341,13.9714 3.76898,21.01339 a 78.960095,78.612588 0 0 1 -4.15844,39.62524 c -2.86443,7.56733 -6.88467,14.62182 -10.54057,21.83892 -3.99512,7.94256 -11.38232,15.83508 -10.5029,24.69073 2.0227,19.9377 -1.46989,40.0255 -2.41214,60.03825 -0.36433,7.65488 -0.35176,15.45985 1.78398,22.82704 0.80405,2.8143 1.92219,5.54104 2.51266,8.40536 1.49502,6.64174 0.31408,13.52111 -1.65835,20.11281 a 76.836904,76.498741 0 0 1 -16.49556,-6.02884 c -1.18095,-19.29979 -0.31409,-38.64962 0.54022,-57.97444 0.55278,-12.24529 1.10556,-24.51561 3.17851,-36.59832 2.24882,-13.17089 5.32681,-25.74139 8.01535,-38.83724 4.03281,-19.59998 8.09074,-39.36258 7.70128,-59.36282 -0.4774,-25.90401 0.20101,-52.28331 11.54564,-75.58566 a 17.349864,17.273506 0 0 1 5.25144,-7.07951 18.06597,17.986461 0 0 1 7.53796,-2.5016 142.46738,141.84038 0 0 1 27.35022,-1.95124 19.121283,19.03713 0 0 1 8.4802,2.76426 z" />
  <path
     style="stroke-width:1.25356"
     id="path296"
     fill="#33323d"
     d="m 341.10134,346.24712 c 0,6.35405 3.56796,20.41301 -1.31915,24.49061 -3.25388,2.73924 -7.27412,4.4028 -10.76671,6.84186 -3.16594,2.21391 -5.86704,5.00318 -9.02042,7.29214 -2.75136,1.93873 -5.81679,3.38966 -8.64352,5.22833 -6.63341,4.31525 -9.53552,12.15775 -14.46032,18.31167 -4.44739,5.57855 -5.49014,13.1834 -4.89967,20.26291 0.59048,7.07951 2.66341,13.9714 3.76898,21.01339 a 79.148544,78.800208 0 0 1 -4.15844,39.62525 c -2.87699,7.56732 -6.88467,14.62182 -10.54058,21.83892 -3.99511,7.94256 -11.39487,15.83508 -10.50289,24.69072 2.02269,19.93771 -1.48246,40.0255 -2.41214,60.03825 -0.36434,7.65488 -0.35177,15.45986 1.78398,22.82705 0.80405,2.8143 1.90962,5.54103 2.51266,8.40536 1.74629,7.8425 -0.21358,16.03521 -2.78905,23.65257 -8.86966,-1.55099 -17.83983,-3.08947 -26.80999,-2.42655 -7.87717,0.58788 -15.70408,2.85182 -23.54356,1.91372 -0.94224,-21.06342 0.9925,-42.15186 2.90211,-63.15273 0.3769,-4.29024 0.77893,-8.58048 1.16839,-12.88322 1.50759,-16.44798 3.00262,-32.90846 3.89461,-49.41898 0.22614,-4.16516 -1.25633,-8.58047 -0.0754,-12.59553 q 3.68104,-12.62054 7.36207,-25.12851 a 83.21904,82.85279 0 0 0 2.93981,-12.77064 c 1.10556,-8.94319 -0.72868,-17.96144 -2.51266,-26.77956 q -3.76898,-18.11154 -7.53796,-36.27312 c -0.82917,-4.01505 -1.67091,-8.04262 -2.81417,-12.00764 a 77.640953,77.299252 0 0 1 -2.12318,-7.98009 103.01874,102.56535 0 0 1 -0.70355,-11.43228 c -0.3769,-6.5917 -1.92217,-13.04581 -2.41215,-19.62501 a 40.277815,40.100551 0 0 1 0.30153,-9.48103 24.071208,23.96527 0 0 1 3.55539,-9.55609 293.75417,292.46134 0 0 1 57.23822,-16.26036 80.40487,80.051005 0 0 1 13.81959,-1.60102 92.4656,92.058655 0 0 1 15.75433,1.73861 c 7.26157,1.25079 14.66133,2.50158 21.35754,5.75366 a 31.571475,31.432528 0 0 1 8.66866,6.00382 c 3.36694,3.36465 1.25632,-4.4028 2.33676,0.22515 0.30152,1.60101 -1.34426,7.61735 -1.31914,9.21837 z" />
  <path
     style="stroke-width:1.25356"
     id="path298"
     fill="#4c4981"
     d="m 258.61097,652.52977 a 9.435009,9.3934851 0 0 0 -3.19107,1.98877 l -6.28163,5.22833 c -2.1232,1.76362 -4.89967,3.62731 -7.41233,2.5016 a 16.658884,16.585568 0 0 1 -2.9398,-2.30148 2.8769868,2.864325 0 0 0 -3.44233,-0.38774 3.5428396,3.5272474 0 0 0 -0.96738,2.16388 165.83504,165.1052 0 0 0 -2.72622,33.67145 20.013275,19.925196 0 0 0 6.10574,1.35087 1.0427506,1.0381614 0 0 0 0.67841,-0.12509 c 0.3769,-0.30019 0.17589,-0.87555 0.12564,-1.33835 -0.17589,-1.61353 2.08551,-2.57664 3.54284,-1.86368 a 7.0228629,6.9919549 0 0 1 2.88955,3.75239 3.9197374,3.9024864 0 0 0 1.08044,1.61353 3.6307824,3.6148032 0 0 0 1.49503,0.53784 53.833573,53.596649 0 0 0 8.65609,0.78799 c 13.39244,0.4628 26.82256,0.47531 40.20243,0 a 13.480379,13.421051 0 0 0 4.13332,-0.57536 7.8394749,7.804973 0 0 0 4.7866,-6.06636 10.754152,10.706822 0 0 0 -1.90962,-7.65488 13.29193,13.233431 0 0 0 -4.39714,-4.02757 26.382848,26.266736 0 0 0 -4.171,-1.75111 l -6.28163,-2.25144 c -4.57303,-1.63854 -9.32194,-3.36464 -12.75171,-6.81684 a 32.551409,32.408149 0 0 1 -4.81173,-6.9044 c -2.37446,-4.00255 -6.08062,-13.37102 -12.4125,-11.53235 z" />
  <path
     style="stroke-width:1.25356"
     id="path300"
     fill="#fbbebe"
     d="m 320.33427,143.30531 a 12.563261,12.50797 0 0 1 -2.62573,5.35342 c -2.71366,3.75239 -5.71628,7.71741 -10.11342,9.20586 a 20.377609,20.287927 0 0 1 -7.53796,0.67543 99.099002,98.662863 0 0 1 -59.44935,-23.56501 c 7.87717,-5.1783 12.0733,-14.60931 13.10348,-23.94025 a 78.922405,78.575064 0 0 0 -1.25632,-21.688824 c -0.36434,-2.113847 -0.74124,-4.215186 -1.11813,-6.253985 -0.70354,-3.827439 -2.51265,-6.791828 1.87192,-7.855004 3.40465,-0.838035 8.02793,-0.25016 11.50795,0 7.65102,0.42527 15.46538,2.076323 21.68419,6.741795 a 14.636199,14.571784 0 0 1 4.18357,4.540393 c 2.67597,5.003187 0.50252,10.894441 -0.12564,16.635595 a 22.940515,22.839553 0 0 0 -0.0879,3.915 c 0.48998,6.36655 4.78661,11.85756 9.72397,15.92264 4.93736,4.0651 10.64108,7.19208 15.45282,11.38226 2.68853,2.25143 5.264,5.41595 4.78659,8.93068 z" />
  <path
     style="stroke-width:1.25356"
     id="path302"
     opacity="0.1"
     d="m 290.44627,103.07969 a 36.433456,36.273111 0 0 1 -8.32945,0.9506 37.149562,36.986065 0 0 1 -29.67441,-14.70937 c -0.36434,-2.113847 -0.74124,-4.215186 -1.11814,-6.253985 -0.70354,-3.827438 -2.51265,-6.791827 1.87193,-7.855005 3.40464,-0.838034 8.02793,-0.250159 11.50795,0 7.65102,0.425271 15.46537,2.076323 21.68419,6.741796 a 14.636199,14.571784 0 0 1 4.18357,4.540393 c 2.67597,4.940648 0.50252,10.831902 -0.12564,16.585571 z" />
  <ellipse
     ry="37.061111"
     rx="37.224941"
     style="stroke-width:1.25356"
     id="circle304"
     fill="#fbbebe"
     cy="65.230576"
     cx="282.12943" />
  <path
     style="stroke-width:1.25356"
     id="path306"
     opacity="0.1"
     d="m 343.37529,340.20578 c -0.22614,0.50031 -1.99756,9.01824 -2.27395,9.50605 -12.38737,-2.50159 -20.10122,-2.68921 -32.66448,-2.50159 a 51.333484,51.107564 0 0 0 -9.51039,0.788 c -2.63829,0.52534 -5.21376,1.38838 -7.87716,1.80114 -14.34725,2.20141 -27.92814,-8.96821 -42.41357,-7.86751 -4.83686,0.36274 -9.46014,2.08883 -13.99548,3.75239 -5.0253,1.90122 -10.05061,3.35214 -14.95027,5.00319 a 24.071208,23.96527 0 0 1 3.55539,-9.55609 293.75417,292.46134 0 0 1 57.23822,-16.26036 80.40487,80.051005 0 0 1 13.81959,-1.60102 92.4656,92.058655 0 0 1 15.75433,1.73861 c 7.26156,1.2508 14.66133,2.50159 21.35754,5.75367 a 31.571475,31.432528 0 0 1 8.66865,6.00382 c 3.29158,3.4397 2.27395,-1.18826 3.29158,3.4397 z" />
  <path
     style="stroke-width:1.25356"
     id="path308"
     fill="#4c4981"
     d="m 269.70432,140.90379 c -0.77892,-3.75239 -3.35439,-6.7418 -5.89216,-9.5686 q -7.18619,-8.0051 -14.84978,-15.59743 a 21.269601,21.175993 0 0 0 -5.7791,-4.49037 7.5379566,7.5047817 0 0 0 -7.07311,0.0625 c -1.93475,1.25079 -2.91468,3.4522 -4.45996,5.12827 -3.34183,3.63982 -9.15862,4.50287 -11.97279,8.56795 a 22.777193,22.676949 0 0 1 -2.14832,3.23957 9.5480783,9.5060568 0 0 1 -4.20869,2.06382 l -17.73932,5.29086 c -2.08551,0.6129 -4.39715,1.41341 -5.38964,3.33963 a 10.854658,10.806886 0 0 0 -0.79149,3.21455 c -1.40708,7.99259 -8.48021,13.54613 -14.69902,18.76196 -2.16087,1.81365 -4.34688,3.81492 -5.264,6.46662 -0.91712,2.65169 -0.43971,5.46598 0.12564,8.1677 1.41964,6.86687 3.49258,13.75877 7.53794,19.52494 2.66342,3.90249 6.156,7.25462 8.35457,11.43228 a 39.33557,39.162452 0 0 1 3.46747,12.63305 c 1.25632,8.21774 1.90961,16.49801 2.61316,24.7783 0.6156,7.27963 -0.26384,15.45984 1.85936,22.51434 2.58803,8.56796 11.82202,13.44606 15.91765,21.41364 a 40.202435,40.025502 0 0 1 3.15337,10.53171 l 3.93231,19.83764 a 43.971413,43.777893 0 0 1 1.16838,9.16835 c -0.10051,7.29214 -3.85692,14.39667 -2.67597,21.58875 6.64596,-2.5016 13.05323,-4.21519 19.68662,-6.70427 4.54791,-1.71359 9.17119,-3.45221 14.0206,-3.81493 14.47288,-1.07569 28.05377,10.08142 42.40101,7.88002 2.66341,-0.40026 5.23888,-1.2508 7.87716,-1.78864 a 52.363672,52.133217 0 0 1 9.5104,-0.81302 180.1446,179.35178 0 0 1 37.68977,3.38966 c 2.51266,-4.19017 2.92725,-9.33094 2.31165,-14.17153 -0.6156,-4.84058 -2.18601,-9.49355 -3.41721,-14.22156 a 105.71984,105.25457 0 0 1 -2.78904,-38.03674 83.985399,83.615776 0 0 0 0.86686,-9.66866 c 0,-12.08269 -7.36207,-23.40241 -6.68365,-35.47259 0.66585,-11.87007 14.28442,-18.5118 19.91277,-29.0185 a 12.663767,12.608033 0 0 0 1.87192,-6.97945 c -0.27639,-2.50159 -1.85936,-4.75302 -2.87698,-7.10452 -2.51266,-5.76618 -1.58297,-12.40791 -3.01519,-18.5118 -0.51509,-2.13886 -1.25633,-4.20267 -1.78398,-6.35405 -1.25633,-5.92878 -0.11307,-12.23279 -1.63323,-18.11154 -1.18095,-4.5529 -3.91973,-8.54294 -6.83441,-12.23279 -4.9248,-6.25399 -10.67877,-12.09521 -17.86495,-15.54741 -7.18619,-3.4522 -16.03073,-4.19017 -23.05359,-0.41276 a 8.7942827,8.7555787 0 0 0 -2.8393,2.23893 11.193866,11.144601 0 0 0 -1.55784,3.65233 113.84827,113.34722 0 0 1 -10.31443,23.92774 11.156176,11.107077 0 0 1 -9.12093,-2.71423 c -2.53779,-2.15137 -6.88468,-4.27773 -7.55053,-7.47976 z" />
  <path
     style="stroke-width:1.25356"
     id="path310"
     fill="#33323d"
     d="m 264.20162,76.350156 a 12.060731,12.007651 0 0 0 0.90455,-5.253348 8.3168788,8.2802758 0 0 1 1.40709,-5.078235 c 1.45733,-1.763624 4.07049,-2.238927 5.46501,-4.027567 1.59553,-2.038798 1.05532,-4.928139 1.53272,-7.504781 a 9.4601355,9.4185011 0 0 1 8.79428,-7.504782 c 3.1157,-0.08756 6.04293,1.388384 9.10837,1.988768 3.98256,0.788002 8.09074,0.07505 12.08585,-0.625399 2.9775,-0.525334 6.28164,-1.188257 8.141,-3.514739 a 12.299433,12.245303 0 0 0 2.16088,-5.303379 c 0.66585,-2.989405 1.16839,-6.316525 -0.3769,-8.955707 -1.54528,-2.639181 -4.81173,-3.927502 -6.5329,-6.491636 -1.49502,-2.238927 -1.62066,-5.190807 -3.1408,-7.417226 -2.3619,-3.477215 -7.2867,-4.090106 -11.47027,-3.564771 -4.18356,0.525334 -8.42994,1.851179 -12.56326,0.963113 -4.5479,-0.975621 -9.04554,-4.5403923 -13.32962,-2.751753 -3.15337,1.325845 -4.47252,4.940648 -6.40726,7.754941 a 16.935276,16.860743 0 0 1 -6.62084,5.653603 c -4.09562,1.963751 -8.89478,2.238926 -12.82709,4.515377 a 14.372371,14.309117 0 0 0 -6.80928,9.806248 4.1333129,4.115122 0 0 0 0.0754,2.238926 10.427506,10.381614 0 0 0 0.9925,1.576004 c 1.63322,2.576642 0.57791,6.016334 -1.00506,8.617991 -1.58297,2.601658 -3.69359,5.003188 -4.19613,8.067641 -0.50253,3.064453 0.69098,6.053857 2.23626,8.693039 a 62.816304,62.539847 0 0 1 4.63585,7.892528 c 1.34426,3.26458 1.59553,6.879383 2.9398,10.131455 a 16.482998,16.410456 0 0 0 12.29943,9.731201 3.7689783,3.7523909 0 0 0 3.00262,-0.450287 3.8443578,3.8274386 0 0 0 1.11813,-2.126355 24.247093,24.140381 0 0 0 0.71611,-4.215185 c 0.21357,-2.801786 0,-6.04135 1.25632,-8.630499 1.55784,-3.239565 4.72379,-1.05067 6.40726,-4.215186 z" />
  <path
     style="stroke-width:1.25356"
     id="path312"
     opacity="0.1"
     d="m 313.36166,30.671051 c -1.55785,-2.65169 -4.81173,-3.927502 -6.5329,-6.491637 -1.49503,-2.238926 -1.62066,-5.190807 -3.14082,-7.417225 a 8.1409931,8.1051642 0 0 0 -4.69865,-3.164516 v 0 c 1.52015,2.226418 1.63322,5.1783 3.14081,7.417226 1.7086,2.564133 4.96249,3.827438 6.52033,6.491636 1.55785,2.664197 1.04275,5.966301 0.3769,8.955706 a 12.349685,12.295334 0 0 1 -2.14832,5.303379 c -1.93473,2.313975 -5.17606,2.989405 -8.15356,3.514739 -3.99511,0.700447 -8.10329,1.400893 -12.08585,0.625399 -3.05287,-0.612891 -5.98011,-2.076323 -9.10837,-1.988767 a 9.435009,9.3934851 0 0 0 -8.71889,7.442241 c -0.47741,2.501595 0,5.42846 -1.53272,7.504783 -1.40709,1.788639 -4.02025,2.263942 -5.46502,4.015057 a 8.3922583,8.3553237 0 0 0 -1.41966,5.090744 11.972788,11.920095 0 0 1 -0.89198,5.240839 c -1.69605,3.177025 -4.86198,0.975622 -6.45752,4.215186 -1.25633,2.58915 -1.04275,5.828714 -1.25633,8.630499 a 24.385289,24.277968 0 0 1 -0.7161,4.227694 3.9071741,3.8899785 0 0 1 -1.10557,2.126354 3.7689783,3.7523909 0 0 1 -3.00262,0.450287 15.892525,15.822581 0 0 1 -3.76898,-1.150733 16.332239,16.26036 0 0 0 8.48021,4.290234 3.7689783,3.7523909 0 0 0 3.00262,-0.450287 3.8443578,3.8274386 0 0 0 1.11812,-2.126355 24.247093,24.140381 0 0 0 0.71611,-4.215186 c 0.21357,-2.801785 0,-6.041349 1.25632,-8.630499 1.6081,-3.239564 4.77404,-1.050669 6.45753,-4.215185 a 12.060731,12.007651 0 0 0 0.90455,-5.253348 8.3168788,8.2802758 0 0 1 1.40708,-5.078235 c 1.45734,-1.763623 4.0705,-2.238926 5.46503,-4.027567 1.59553,-2.038799 1.05531,-4.92814 1.53271,-7.504781 a 9.435009,9.3934851 0 0 1 8.79428,-7.429734 c 3.11569,-0.100063 6.04293,1.375876 9.10837,1.97626 3.98255,0.788001 8.09073,0.07505 12.08585,-0.625399 2.97749,-0.525335 6.28163,-1.188257 8.14099,-3.51474 a 12.299433,12.245303 0 0 0 2.16089,-5.303378 c 0.57791,-2.964389 1.08043,-6.291509 -0.46484,-8.930691 z" />
  <path
     style="stroke-width:1.25356"
     id="path314"
     fill="#33323d"
     d="m 232.99447,723.55002 c 0,12.62054 -8.86965,22.85207 -19.79969,22.85207 -10.93004,0 -19.78714,-10.23153 -19.78714,-22.85207 v -0.17511 c 0.0879,-12.50797 8.91992,-22.67695 19.78714,-22.67695 6.72134,0 12.6512,3.85246 16.21916,9.78124 a 25.214465,25.103495 0 0 1 3.58053,13.07082 z" />
  <path
     style="stroke-width:1.25356"
     id="path316"
     fill="#33323d"
     d="m 390.7639,732.75588 c 0,24.30299 -12.62607,44.01556 -28.19195,44.01556 -15.56588,0 -28.16683,-19.71257 -28.16683,-44.01556 0,-13.75876 4.02024,-26.00406 10.327,-34.05919 4.87454,-6.25399 11.05567,-10.00638 17.83983,-10.00638 a 18.844892,18.761954 0 0 1 2.78904,0.20012 c 5.59065,0.86306 10.72903,4.27773 14.86234,9.50606 a 27.08639,26.967182 0 0 1 1.63323,2.23894 c 5.47758,8.08014 8.90734,19.48741 8.90734,32.12045 z" />
  <polygon
     transform="matrix(1.2563261,0,0,1.250797,-466.02536,-135.37224)"
     id="polygon318"
     fill="#33323d"
     points="627.03,343.06 627.88,349.47 628.02,350.49 628.41,353.36 641.88,454.02 642.24,456.72 661.45,600.23 665.66,631.68 668.62,653.78 649.01,655.74 646.49,634.78 646.32,633.41 642.76,603.87 642.6,602.5 624.59,453.07 624.2,449.89 613.46,360.7 613.2,358.57 612.08,349.25 611.33,343.06 " />
  <path
     style="stroke-width:1.25356"
     id="path320"
     opacity="0.1"
     d="m 362.54682,688.75285 a 18.844892,18.761954 0 0 1 2.78905,0.20013 l -0.70355,0.4753 a 15.817145,15.747533 0 0 0 -6.28163,14.57178 l 3.99512,37.8241 a 4.8117289,4.7905523 0 0 1 0,0.58788 5.728847,5.7036341 0 0 1 -11.30694,1.07568 c -1.64578,-8.66802 -4.76147,-26.3793 -6.16856,-42.37699 -0.0754,-0.85054 -0.12563,-1.65106 -0.12563,-2.41404 4.83686,-6.20396 11.01798,-9.94384 17.80214,-9.94384 z" />
  <path
     style="stroke-width:1.25356"
     id="path322"
     opacity="0.1"
     d="m 369.65763,700.69796 -0.86687,-0.25015 c -0.26382,-0.68795 -0.50252,-1.36338 -0.76636,-1.98877 a 27.08639,26.967182 0 0 1 1.63323,2.23892 z" />
  <path
     style="stroke-width:1.25356"
     id="path324"
     fill="#504f60"
     d="m 361.1523,678.44629 c 0,0 -20.0384,-1.25081 -18.06596,20.93833 1.41964,15.9977 4.53533,33.69647 6.16855,42.3645 a 5.728847,5.7036341 0 0 0 6.49521,4.57791 v 0 a 5.728847,5.7036341 0 0 0 4.83685,-6.25398 l -3.99511,-37.8241 a 15.804582,15.735026 0 0 1 6.28163,-14.58429 c 4.73634,-3.31461 11.05567,-3.51474 16.33223,11.03203 l 3.61822,0.98813 c 0,0 4.62329,-23.86521 -21.67162,-21.23853 z" />
  <path
     style="stroke-width:1.25356"
     id="path326"
     opacity="0.1"
     d="m 340.37267,432.51459 a 16.043284,15.972677 0 0 1 -3.01518,0.30019 h -7.06056 a 16.21917,16.147789 0 0 1 -16.06841,-14.35915 l -10.8044,-97.89988 a 16.206607,16.135281 0 0 1 19.54843,-17.51115 z" />
  <path
     style="stroke-width:1.25356"
     id="path328"
     opacity="0.1"
     d="m 340.82494,435.89174 a 15.201546,15.134644 0 0 1 -3.46745,0.38775 h -7.06056 a 16.030721,15.960169 0 0 1 -11.63358,-5.00319 l -0.48996,-3.99004 -13.49295,-111.54607 a 16.1061,16.035217 0 0 1 18.78208,-9.19337 l 16.91015,125.91774 z" />
  <path
     style="stroke-width:1.25356"
     id="path330"
     fill="#6c63ff"
     d="m 303.42412,322.28185 c 2.60059,23.55251 8.09073,73.34674 10.8044,97.9249 a 16.156354,16.085249 0 0 0 16.06841,14.33413 h 7.04799 a 15.867399,15.797565 0 0 0 15.26436,-10.79438 13.907529,13.846322 0 0 0 0.66586,-4.17767 c 0,-7.50477 -8.09074,-75.48559 -10.6034,-96.44894 a 15.942778,15.872613 0 0 0 -5.95498,-10.64429 56.924135,56.67361 0 0 0 -10.69134,-6.66674 c -11.29436,-5.22833 -23.95814,4.14013 -22.6013,16.47299 z" />
  <path
     style="stroke-width:1.25356"
     id="path332"
     opacity="0.1"
     d="m 229.41394,710.4792 -5.30169,-0.22515 a 24.636555,24.528128 0 0 0 -13.48038,3.28959 l -16.58351,9.50606 c -0.21357,0.11258 -0.43971,0.23765 -0.64072,0.32521 0.0879,-12.50797 8.91992,-22.67695 19.78714,-22.67695 6.70878,0 12.6512,3.85246 16.21916,9.78124 z" />
  <polygon
     transform="matrix(1.2563261,0,0,1.250797,-466.02536,-135.37224)"
     id="polygon334"
     opacity="0.1"
     points="646.32,633.41 642.76,603.87 661.45,601.62 665.66,633.06 646.49,634.78 " />
  <path
     style="stroke-width:1.25356"
     id="path336"
     fill="#504f60"
     d="m 345.93819,656.89505 c 3.86948,56.28586 -35.71735,55.24771 -35.71735,55.24771 l -86.09602,-3.67735 a 24.875257,24.76578 0 0 0 -13.49295,3.28959 l -16.58351,9.51857 a 8.6309603,8.5929751 0 0 1 -9.6737,-0.71295 v 0 a 8.6435235,8.605483 0 0 1 -1.54529,-11.89509 l 7.0103,-9.30592 a 14.648763,14.584293 0 0 1 12.56326,-5.80369 l 90.09115,5.11575 c 36.43346,0.65042 48.79571,-80.48878 48.79571,-80.48878 v 0 l 23.6943,-2.83931 5.27658,39.33757 -24.28479,2.16387 z" />
  <polygon
     transform="matrix(1.2563261,0,0,1.250797,-466.02536,-135.37224)"
     id="polygon338"
     opacity="0.1"
     points="627.88,349.47 612.08,349.25 611.33,343.06 627.03,343.06 " />
  <path
     style="stroke-width:1.25356"
     id="path340"
     fill="#33323d"
     d="m 226.98924,286.45903 166.56371,4.15264 a 5.2137533,5.1908073 0 0 1 5.0253,5.19081 v 0 a 5.20119,5.1782994 0 0 1 -5.27656,5.1783 l -166.55115,-2.31397 a 5.20119,5.1782994 0 0 1 -5.12582,-5.1783 v -1.85118 a 5.20119,5.1782994 0 0 1 5.36452,-5.1783 z" />
  <path
     style="stroke-width:1.25356"
     id="path342"
     fill="#fbbebe"
     d="m 238.48462,271.71213 c 5.80423,1.17575 12.22405,0.86306 17.08603,4.25271 4.33433,3.01442 6.43239,8.45539 6.6711,13.75876 0.2387,5.30339 -1.15582,10.44416 -2.51266,15.5349 -0.42715,1.60103 -1.25632,3.53976 -2.9398,3.58979 -1.68347,0.05 -2.51265,-1.65105 -3.85692,-2.50159 -2.88955,-1.75112 -6.97261,0.83804 -9.88728,-0.86305 a 16.156354,16.085249 0 0 1 -2.28652,-2.06381 7.5379566,7.5047817 0 0 0 -8.45507,-1.00065 13.568321,13.508607 0 0 0 -13.71909,-15.99769 c -2.26138,0.0751 -4.68609,0.66293 -6.65852,-0.42527 -3.17851,-1.72609 -2.91468,-6.47912 -1.25633,-9.65615 2.41215,-4.46534 4.24639,-8.84313 9.72396,-8.84313 6.28164,0.025 12.0733,3.00191 18.0911,4.21518 z" />
  <path
     style="stroke-width:1.25356"
     id="path344"
     fill="#fbbebe"
     d="m 351.93087,277.92859 -0.0754,12.15775 c 0,4.57791 0,9.38097 2.27396,13.37101 1.18095,2.07633 3.21619,3.95253 5.62834,3.90249 0.90456,0 1.78398,-0.30019 2.68854,-0.26266 2.62572,0.10006 5.0253,2.85181 7.47514,1.93874 0.82917,-0.31271 1.49502,-1.01316 2.34933,-1.25081 1.25632,-0.37523 2.7011,0.32521 3.96999,-0.0625 1.26889,-0.38774 2.02269,-1.83867 2.51265,-3.11447 2.51265,-6.1039 5.0253,-12.83318 3.20363,-19.16222 a 29.674422,29.543824 0 0 0 -4.28407,-7.94256 l -8.14099,-11.99514 a 4.1207495,4.102614 0 0 0 -1.33171,-1.4134 3.6056559,3.5897872 0 0 0 -1.82167,-0.32521 c -4.04537,0 -7.82691,1.90121 -11.44513,3.75239 -3.61822,1.85118 -2.9775,6.91691 -3.00262,10.40663 z" />
  <path
     style="stroke-width:1.25356"
     id="path346"
     fill="#4c4981"
     d="m 359.90854,210.33553 a 34.423335,34.271836 0 0 0 2.28651,7.76744 c 1.43221,2.83931 3.96999,5.22833 4.42227,8.38035 0.54022,3.75239 -1.92218,8.08014 0.42715,11.04453 0.95481,1.25079 2.51265,1.83867 3.51771,3.03944 2.41215,2.96438 0.11308,7.32966 0.46484,11.11958 0.31409,3.46471 2.91468,6.34154 3.63079,9.75622 0.7161,3.41467 -0.48997,7.64237 1.69604,10.5192 -2.2237,-3.48972 -7.09824,-4.17766 -11.19387,-3.50223 a 25.365224,25.253591 0 0 0 -16.67144,10.74434 32.953433,32.808404 0 0 0 -1.55785,-14.70936 c -1.46991,-4.2277 -3.83179,-8.33032 -3.63078,-12.79566 0.12563,-2.63918 1.15581,-5.22833 0.90455,-7.86751 -0.38946,-4.12763 -3.76898,-7.26713 -6.68365,-10.18149 -3.54284,-3.51473 -6.99774,-7.6924 -7.34951,-12.67057 -0.32665,-4.61544 2.12319,-8.98072 4.9248,-12.68308 a 24.058645,23.952762 0 0 1 8.30431,-7.50479 c 2.19857,-1.07569 8.8571,-5.57855 10.31444,-5.00318 3.12825,1.17575 5.50271,11.69495 6.19369,14.54677 z" />
  <path
     style="stroke-width:1.25356"
     id="path348"
     fill="#4c4981"
     d="m 175.93214,172.68654 a 14.322117,14.259085 0 0 0 -7.97766,6.59169 55.278348,55.035066 0 0 0 -4.18357,9.70619 128.8488,128.28173 0 0 1 -9.79934,20.61313 c -2.93981,5.0032 -6.28164,9.80626 -7.86461,15.32227 -1.41965,4.82807 -1.52015,10.08142 -3.85692,14.53426 -1.14326,2.17638 -2.77648,4.10261 -3.64334,6.40407 -1.1307,2.9769 -0.84175,6.25399 -0.52766,9.45603 l 0.81661,8.45539 a 21.822385,21.726343 0 0 0 1.85936,8.05514 c 1.57041,2.9894 4.43484,5.00318 7.19875,7.01696 l 12.77683,9.01825 a 33.280078,33.133611 0 0 0 8.0028,4.59043 c 8.31688,2.91435 17.28705,-1.1007 26.03108,-2.20141 6.03037,-0.75047 12.13612,-0.11257 18.17904,0.53785 -0.50253,-4.91564 -0.33921,-10.11895 2.04781,-14.44671 2.38702,-4.32775 9.66115,-10.00638 14.47288,-8.83063 -4.77404,-4.01506 -12.67633,-1.77612 -17.96546,-5.11576 -2.12319,-1.33835 -3.9323,-3.11448 -6.01781,-4.52788 -6.57058,-4.42782 -15.99303,-5.1783 -20.22685,-11.87007 a 2.6634114,2.6516896 0 0 1 -0.50252,-1.25079 c -0.0754,-0.98813 0.76635,-1.77613 1.49502,-2.5016 5.3017,-5.00318 7.95255,-12.22028 8.60583,-19.43738 0.6533,-7.2171 -0.50252,-14.44671 -1.82167,-21.57625 -1.06787,-5.71614 -2.26138,-11.50733 -4.87454,-16.71064 -2.61316,-5.20332 -6.74647,-9.8938 -12.22406,-11.83254 z" />
</svg>
